<?xml version="1.0" standalone="no"?>
<!DOCTYPE svg PUBLIC "-//W3C//DTD SVG 20010904//EN"
 "http://www.w3.org/TR/2001/REC-SVG-20010904/DTD/svg10.dtd">
<svg version="1.0" xmlns="http://www.w3.org/2000/svg"
 width="500.000000pt" height="500.000000pt" viewBox="0 0 500.000000 500.000000"
 preserveAspectRatio="xMidYMid meet">
<metadata>
Created by potrace 1.14, written by Peter Selinger 2001-2017
</metadata>
<g transform="tranTask(0.000000,500.000000) scale(0.100000,-0.100000)"
fill="#000000" stroke="none">
<path d="M3405 4430 c-11 -4 -31 -11 -44 -15 -13 -5 -53 -23 -88 -41 -53 -28
-70 -32 -106 -27 -23 3 -53 7 -67 8 -14 2 -25 4 -25 5 0 1 -20 3 -45 4 -25 1
-51 5 -57 9 -8 5 -13 3 -13 -3 0 -6 -5 -8 -12 -4 -25 16 -277 2 -398 -22 -14
-2 -38 -7 -54 -10 -16 -3 -34 -8 -40 -11 -5 -4 -21 -7 -35 -9 -36 -3 -175 -46
-179 -56 -2 -5 -8 -6 -12 -3 -5 3 -25 -4 -45 -15 -19 -11 -42 -20 -49 -20 -7
0 -19 -7 -26 -15 -7 -8 -16 -12 -21 -9 -5 3 -9 0 -9 -6 0 -6 -5 -8 -11 -5 -5
4 -18 1 -27 -7 -9 -8 -55 -36 -102 -63 -47 -27 -92 -55 -100 -62 -8 -7 -44
-34 -79 -60 -104 -76 -331 -310 -331 -341 0 -7 -3 -12 -7 -12 -11 0 -89 -121
-85 -131 1 -5 -2 -9 -8 -9 -5 0 -26 -33 -46 -72 -20 -40 -40 -74 -45 -76 -4
-2 -5 -10 -2 -18 3 -8 0 -14 -7 -14 -6 0 -9 -4 -5 -9 3 -5 0 -15 -7 -23 -7 -7
-15 -22 -17 -33 -1 -11 -8 -29 -14 -40 -6 -11 -10 -23 -9 -27 4 -15 -18 -8
-38 12 -11 11 -20 18 -20 15 0 -3 -11 2 -25 11 -14 9 -25 13 -25 9 0 -17 -31
28 -43 61 -6 20 -21 42 -32 48 -11 6 -22 14 -25 17 -11 13 -89 25 -150 23 -36
-1 -65 -3 -65 -4 0 -1 -11 -3 -25 -6 -29 -5 -100 -29 -149 -51 -22 -10 -36
-12 -40 -5 -4 6 -15 10 -25 8 -21 -3 -48 -35 -40 -47 3 -5 0 -9 -6 -9 -6 0 -9
-4 -5 -10 3 -5 -1 -25 -9 -43 -14 -33 -14 -96 -1 -118 4 -6 9 -25 12 -42 3
-18 9 -38 15 -44 6 -7 8 -20 4 -28 -3 -8 -1 -15 4 -15 6 0 9 -3 9 -7 -1 -5 -1
-10 1 -13 1 -3 4 -16 7 -30 7 -38 11 -55 13 -57 2 -2 4 -7 5 -13 1 -5 4 -12 5
-15 1 -3 3 -14 4 -24 0 -11 4 -23 9 -27 4 -4 7 -18 7 -31 0 -13 5 -23 11 -23
5 0 8 -4 5 -8 -9 -15 27 -72 58 -91 17 -10 47 -21 66 -24 19 -3 40 -6 45 -7 6
-1 12 -1 15 0 3 1 25 4 49 6 57 6 231 64 231 77 0 6 3 7 7 4 3 -4 12 -2 20 4
10 9 13 4 13 -25 0 -20 -3 -36 -7 -37 -5 0 -26 -2 -47 -5 -22 -2 -43 -9 -48
-16 -4 -7 -8 -9 -8 -4 0 13 -41 -35 -50 -59 -15 -40 -5 -74 76 -237 18 -38 30
-68 26 -68 -4 0 -1 -4 6 -9 7 -4 14 -15 16 -23 1 -9 8 -23 15 -32 7 -9 11 -16
8 -16 -3 0 10 -29 28 -64 18 -35 31 -67 28 -70 -4 -3 -1 -6 5 -6 7 0 12 -12
12 -26 0 -14 4 -23 9 -20 8 5 26 -40 23 -56 -1 -5 2 -8 7 -8 7 0 13 -14 21
-48 1 -4 8 -14 15 -22 7 -8 14 -19 15 -25 2 -5 6 -19 10 -30 4 -11 9 -24 10
-30 1 -5 11 -23 23 -39 16 -23 20 -44 20 -105 0 -68 11 -105 29 -95 3 2 13 1
21 -2 13 -5 15 -33 14 -177 -2 -129 -5 -172 -14 -173 -7 -1 -14 -2 -15 -4 -2
-1 -10 -3 -18 -5 -8 -1 -40 -14 -70 -27 -118 -53 -159 -126 -103 -185 29 -30
123 -89 123 -77 0 3 6 2 12 -4 19 -15 171 -59 268 -77 47 -9 92 -19 100 -22 8
-3 33 -8 55 -10 67 -7 100 -11 100 -13 0 -2 30 -5 120 -14 33 -4 76 -9 95 -11
76 -10 196 -15 435 -20 138 -3 255 -6 260 -6 6 -1 15 0 20 1 6 1 66 3 135 5
129 4 299 13 360 20 19 3 64 7 100 10 36 3 79 8 95 11 17 3 46 8 65 10 35 4
69 9 113 18 12 3 37 7 55 10 96 15 311 82 324 100 4 6 8 8 8 3 0 -12 56 20 94
53 35 32 51 76 34 98 -6 6 -7 12 -4 12 4 0 -7 13 -24 30 -17 16 -37 30 -45 30
-17 0 -15 38 3 49 7 4 30 42 52 85 24 47 59 98 89 127 28 27 49 49 47 49 -2 0
14 19 35 42 22 24 39 46 39 50 0 5 8 17 18 27 30 34 37 44 91 139 30 51 58 95
63 98 4 3 6 10 3 15 -4 5 1 16 9 25 9 9 14 20 11 25 -4 5 -1 9 4 9 6 0 11 4
11 9 0 5 5 22 12 38 6 15 11 31 10 36 -1 4 3 7 9 7 5 0 8 4 4 9 -3 5 0 13 6
16 5 4 8 13 5 21 -3 8 -1 14 4 14 6 0 9 3 8 8 -1 4 6 33 16 64 9 32 17 60 17
63 0 2 5 19 10 37 14 46 19 71 35 178 18 120 18 343 0 484 -12 90 -58 283 -77
318 -5 10 -8 18 -5 18 4 0 -5 28 -33 95 -16 38 -56 120 -61 125 -3 3 -6 10 -7
16 -1 7 -16 35 -33 63 -16 29 -30 56 -30 61 0 4 -3 10 -7 12 -5 2 -25 29 -46
60 -21 31 -47 67 -57 79 -11 12 -22 30 -25 40 -4 11 -11 17 -16 14 -5 -4 -9
-1 -9 5 0 13 -143 160 -156 160 -5 0 -15 9 -22 20 -7 11 -9 20 -5 20 5 0 24
14 43 30 19 17 54 39 77 51 45 22 56 39 47 73 -4 17 -47 47 -74 51 -3 1 -18 4
-35 8 -63 15 -81 19 -102 21 -12 1 -24 4 -27 6 -5 6 -205 3 -250 -3 -18 -2
-43 4 -63 15 -18 11 -33 16 -33 11 0 -4 -4 -3 -8 3 -7 11 -144 74 -171 78 -19
4 -22 29 -6 60 8 14 11 26 7 26 -3 0 -1 5 5 11 27 27 -14 72 -52 59z m-2460
-1125 c17 -11 30 -24 30 -30 1 -5 4 -29 9 -52 6 -33 12 -43 27 -43 20 0 25
-11 12 -24 -9 -9 -12 -86 -3 -86 3 0 7 -10 8 -22 5 -37 9 -63 12 -65 3 -3 7
-18 9 -32 0 -5 16 -18 34 -30 20 -13 26 -21 16 -21 -20 0 -31 -23 -33 -64 -1
-25 -5 -30 -31 -32 -16 -1 -41 -7 -55 -12 -14 -5 -35 -8 -47 -7 -13 1 -23 -1
-23 -5 0 -9 -77 -6 -86 3 -4 4 -17 7 -28 7 -12 0 -28 11 -38 24 -15 21 -39 92
-42 126 -1 9 -6 21 -10 29 -5 7 -10 25 -12 40 -4 35 -14 83 -19 91 -3 4 4 15
15 25 11 10 20 15 20 12 0 -7 85 23 129 46 33 16 73 56 66 67 -3 4 0 10 6 12
6 2 2 13 -10 28 l-21 25 -6 -22 c-3 -13 -9 -23 -13 -24 -3 0 -19 -2 -36 -4
-16 -1 -53 -6 -80 -10 -44 -6 -53 -4 -70 15 -19 21 -19 21 3 27 12 3 22 9 22
13 0 4 11 6 25 5 14 -2 27 0 30 4 2 4 39 7 82 7 61 -1 86 -6 108 -21z m1100
-70 c76 -32 51 -140 -33 -143 -24 0 -37 6 -51 26 -33 47 -27 88 16 114 27 16
35 17 68 3z m1306 -191 c65 -58 -17 -169 -93 -126 -44 26 -54 68 -27 119 19
35 85 39 120 7z"/>
<path d="M636 3852 c-12 -11 -5 -50 9 -56 16 -6 62 -76 58 -88 -2 -4 2 -19 7
-33 6 -17 6 -25 -1 -25 -6 0 -9 -8 -8 -17 1 -10 -1 -26 -6 -36 -22 -51 2 -181
35 -190 9 -2 22 4 29 14 8 15 8 19 -1 19 -6 0 -9 2 -6 6 3 3 0 25 -7 49 -13
43 -11 79 7 102 5 7 7 17 4 22 -4 5 -2 12 2 15 14 8 5 81 -14 118 -37 73 -88
121 -108 100z"/>
<path d="M567 3759 c-14 -8 -16 -14 -6 -25 6 -8 17 -38 24 -67 10 -44 10 -55
-2 -66 -12 -11 -13 -15 -1 -22 10 -7 10 -9 0 -9 -7 0 -10 -4 -7 -10 3 -5 2
-10 -3 -10 -12 0 -5 -61 7 -73 5 -5 7 -16 4 -24 -3 -7 3 -23 12 -33 10 -11 15
-20 11 -20 -4 0 -1 -7 8 -15 18 -19 24 -19 42 0 12 12 12 18 2 35 -7 11 -16
20 -20 20 -5 0 -8 11 -8 25 0 14 -4 25 -9 25 -9 0 3 77 16 108 13 28 2 102
-20 130 -5 6 -6 12 -3 12 4 0 1 7 -8 15 -17 18 -16 17 -39 4z"/>
</g>
</svg>
